<?xml version="1.0" encoding="UTF-8"?><svg id="Ebene_1" xmlns="http://www.w3.org/2000/svg" viewBox="0 0 779.12 836.93"><defs><style>.cls-1{fill:#84c8b4;}.cls-2{fill:#1f1f1f;}</style></defs><path class="cls-1" d="m28.33,432.59h8.25c7.63,0,14.9-3.24,20.01-8.9l162.68-180.47c4.46-4.95,6.93-11.38,6.93-18.04V27.94c0-14.88-12.06-26.94-26.94-26.94H28.33C13.45,1,1.38,13.06,1.38,27.94v377.7c0,14.88,12.06,26.94,26.94,26.94Z"/><path class="cls-1" d="m478.41,500.19c-10.47-11.34-28.3-11.58-39.08-.54l-111.94,114.72c-9.95,10.2-10.24,26.38-.66,36.93l158.88,174.93c5.11,5.62,12.35,8.83,19.95,8.83h220.54c23.49,0,35.73-27.97,19.8-45.22l-267.48-289.64Z"/><path class="cls-2" d="m63.29,501.8l-53.06,58.5c-4.5,4.96-6.99,11.41-6.99,18.1v10.23h273.1l79.68-86.83H63.29Z"/><polygon class="cls-2" points="154.2 721.74 233.88 634.9 3.24 634.9 3.24 721.74 154.2 721.74"/><path class="cls-2" d="m764.88,56.23l4.2-4.58c4.56-4.97,7.09-11.47,7.09-18.22v-5.49c0-14.88-12.06-26.94-26.94-26.94h-219.77c-7.6,0-14.85,3.21-19.96,8.84l-42.07,46.39h297.45Z"/><path class="cls-2" d="m3.24,768.01v40.11c0,14.88,12.06,26.94,26.94,26.94h8.19c7.55,0,14.75-3.17,19.85-8.73l53.52-58.32H3.24Z"/><polygon class="cls-2" points="184.01 368.7 105.25 455.53 398.47 455.53 478.15 368.7 184.01 368.7"/><polygon class="cls-2" points="425.46 102.5 346.7 189.33 642.75 189.33 722.43 102.5 425.46 102.5"/><polygon class="cls-2" points="304.74 235.6 225.98 322.43 520.61 322.43 600.29 235.6 304.74 235.6"/></svg>